<?xml version="1.0" encoding="UTF-8"?>
<svg id="Layer_1" data-name="Layer 1" xmlns="http://www.w3.org/2000/svg" viewBox="0 0 196.18 49.76">
  <defs>
    <style>
      .cls-1 {
        fill: #025a6e;
      }
    </style>
  </defs>
  <path class="cls-1" d="M182.28,21.74v26.74c0,.47-.99,1.23-1.48,1.28h-37.92c-.57-.05-1.48-1.06-1.48-1.57v-26.31c-.41.14-.89.58-1.23.87-.69.59-2.89,2.84-3.64,2.89-.42.03-.9-.26-1.23-.5-1.11-.82-6.62-6.31-7.39-7.39-.46-.65-.54-1.17-.12-1.86,2.65-2.7,5.14-5.6,7.8-8.29.71-.72,1.79-1.97,2.62-2.45,1.37-.8,4.23-1.55,5.86-2.11,3.03-1.05,6.09-2.01,9.13-3.02,1.15.2,1.74,1.27,2.7,1.92,3.29,2.27,8.47,2.3,11.77.06,1.02-.7,1.66-1.85,2.92-2,4.44,1.72,9.22,2.88,13.64,4.63,1.97.78,2.98,2.07,4.42,3.55,2.41,2.47,4.63,5.13,7.1,7.54.66.92.54,1.33-.14,2.18-1.28,1.6-5.65,6.01-7.25,7.25-.43.33-.75.57-1.31.45-.9-.19-3.4-2.92-4.34-3.64-.15-.11-.18-.28-.44-.22h.01ZM163.14,22.61v8.19c0,.11,1.21,1.13,1.43,1.62,1.26,2.78-1.88,5.34-4.37,3.8-1.58-.98-1.61-3.29-.45-4.61.3-.35.84-.48.93-.95l-.02-8.09c-.79-.73-1.82-1.43-1.84-2.65,0-.4.29-.81.06-1.22l-3.79-3.76c-.11-.02-.98.71-1.14.86-2.27,2.01-6.08,5.68-7.97,7.97-1.28,1.55-1.61,3.25-.29,4.93l13.99,13.99c1.46,1.16,3.01,1.09,4.43-.07,4.79-3.95,9.08-9.73,13.84-13.84,1.34-1.46,1.12-3.62-.22-5.01-4.58-3.96-8.72-9.54-13.33-13.34-1.74-1.43-3.25-1.51-5.01-.07-.34.28-2.47,2.41-2.47,2.61l3.63,3.92c.36.16.96-.23,1.47-.19,1.27.1,2.52,1.25,2.71,2.52.06.41-.07.89.04,1.26.09.31,2.73,3.06,3.06,3.19s1.1-.09,1.61-.03c2.6.34,3.32,3.97,1.09,5.41-1.71,1.11-4.33,0-4.49-2.02-.04-.49.22-1.2.08-1.52-.29-.63-2.43-2.23-2.97-2.9h0Z"/>
  <g>
    <path class="cls-1" d="M91.47,23.06c.02-.62-1.47-.61-1.99-.71-.71-.13-1.41-.07-2.11-.17l-.46-4.94,6.41-.78c1.23.29.35,6.08,1.75,6.55.6.2,3.4.18,3.91-.14l.04-3.91,5.76-.48.39,4.39c.45.31,3.7.31,4.32.12,1.28-.39-.27-3.31.32-4.47l6.82-1.96c1.48,1.21,5.59,5.27,5.57,7.06-.01,1.54-.59,4.97-.87,6.65-.48,2.94-.02,4.96-3.45,5.27-1.7.16-14.13.16-14.76-.23-.42-.26-.55-1.15-1.05-1.46-.73-.19-1.79,1.66-2.07,1.66h-11.84v-2.08c-2.21.26-3.2,1.82-5.61,2.08-2.99.32-10.34.36-13.3,0-1.15-.14-2.12-.46-2.51-1.65-.52-1.61-.35-9.73-.2-11.89.06-.85.3-3.45.5-4.07.45-1.44,3.6.11,4.87-.22l.05,5.35h19.52Z"/>
    <path class="cls-1" d="M9.94,29.1c.34-.1.58-.6.6-1,.08-1.2-1.66-8.15-1.23-8.56l6.8-.8,1.11,3.7,5.97-.85c.57.17-.31,1.87,2.12,1.73,2.68-.15.45-3.14,1.03-5.03l6.65-.42c-.43,2.23.41,4.86.41,6.86,0,.71-.39,1.38-.41,2.08-.06,1.95.57,8.06-1.88,8.51-.71.13-6.14.54-6.64.43-1.55-.32-.6-1.76-1.69-2.46l-4.75.37c.12,4.23.57,5.59-3.74,6.86-8.14,2.4-15.49.4-14.14-9.58.07-.55.53-1.85,1.06-1.85,1.85,0,7.45.38,8.72,0Z"/>
    <path class="cls-1" d="M49.61,35.75l-.42-5.4h-12.25c-.31,0-.94-1.01-1.03-1.47-.33-1.71-.3-10.45,1.23-11.22.3-.15,5.14-.57,6.03-.61,1.42-.07,2.88-.03,4.3.05l.88,5.77,4.15.41-.23-5.43,6.62-1.6c2.38,4.68,1.71,10.78,1.04,15.92-.15,1.14-.25,2.83-.99,3.59h-9.35Z"/>
    <path class="cls-1" d="M48.36,31.18v6.86c0,.57-.55,3.29-1.1,3.48s-10.93.24-11.52.08l-1.08-8.75,13.7-1.67Z"/>
    <path class="cls-1" d="M121.38,6.84c-.35,1.71,1.48,6.54.24,7.51l-13.13,3.13c-.31-1.49-2.12-5.08-1.04-6.08l13.94-4.56Z"/>
    <path class="cls-1" d="M23.87,12.87c.15.15,1.41-.22,1.88.41.27.36.8,3.2.21,3.57-.9.56-8.87.97-9.39.21-.4-2.81-.96-5.26,2.72-4.6.24-.19-2.16-4.29,2.71-3.76,3.06.33,1.39,3.71,1.87,4.17Z"/>
    <path class="cls-1" d="M59.58,37c-.3,2.93,2.06,5.56-2.5,4.99,1.07,5.23-.65,3.43-4.57,3.32l.42-3.74h-2.91s.45-4.12.45-4.12l9.1-.45Z"/>
    <path class="cls-1" d="M83.58,19.73h-7.68c-1.26-1.18-1.59-3.79-.42-4.99h7.89c1.24,1.26.56,3.46.21,4.99Z"/>
    <rect class="cls-1" x="96.87" y="37.19" width="9.55" height="4.57"/>
    <path class="cls-1" d="M2.1,20.82c.73-.21,3.17.59,3.42,1.51.07.26-.27,4.84-.36,5.32-.37,2.03-4.65.66-4.92-.49-.17-.73,1.11-6.11,1.86-6.33Z"/>
    <path class="cls-1" d="M118.84,5.98c-.35.5-10.15,3.11-11.58,3.78l-.37-1.84c.03-.22.19-.32.35-.44.42-.32,9.01-3.18,9.97-3.36,1.54-.29,2.29.91,1.63,1.87Z"/>
  </g>
</svg>